<svg width="9" height="12" viewBox="0 0 9 12" fill="none" xmlns="http://www.w3.org/2000/svg">
<path d="M4.5 6C4.80938 6 5.07431 5.8824 5.29481 5.6472C5.51494 5.4124 5.625 5.13 5.625 4.8C5.625 4.47 5.51494 4.1874 5.29481 3.9522C5.07431 3.7174 4.80938 3.6 4.5 3.6C4.19062 3.6 3.92588 3.7174 3.70575 3.9522C3.48525 4.1874 3.375 4.47 3.375 4.8C3.375 5.13 3.48525 5.4124 3.70575 5.6472C3.92588 5.8824 4.19062 6 4.5 6ZM4.5 10.41C5.64375 9.29 6.49219 8.2724 7.04531 7.3572C7.59844 6.4424 7.875 5.63 7.875 4.92C7.875 3.83 7.54912 2.9374 6.89737 2.2422C6.246 1.5474 5.44687 1.2 4.5 1.2C3.55313 1.2 2.75381 1.5474 2.10206 2.2422C1.45069 2.9374 1.125 3.83 1.125 4.92C1.125 5.63 1.40156 6.4424 1.95469 7.3572C2.50781 8.2724 3.35625 9.29 4.5 10.41ZM4.5 12C2.99062 10.63 1.86337 9.3574 1.11825 8.1822C0.37275 7.0074 0 5.92 0 4.92C0 3.42 0.452438 2.225 1.35731 1.335C2.26181 0.445 3.30938 0 4.5 0C5.69062 0 6.73819 0.445 7.64269 1.335C8.54756 2.225 9 3.42 9 4.92C9 5.92 8.62744 7.0074 7.88231 8.1822C7.13681 9.3574 6.00938 10.63 4.5 12Z" fill="black"/>
</svg>
